<svg version="1.1"
      xmlns="http://www.w3.org/2000/svg"
      xmlns:xlink="http://www.w3.org/1999/xlink"  id="snapshot-41690" width="800" height="800" viewBox="0 0 800 800"><desc>This image was made on Patterninja.com</desc><defs>
<!-- image 02826 -->
<g id="transformed-02826" data-image="02826" transform="translate(-149.25314717894776, -298.25314717894804) rotate(29, 387.25314717894776, 387.25314717894804)"><g><svg version="1.1" width="774.5062943578955px" height="774.5062943578961px" viewBox="0 0 774.5062943578955 774.5062943578961"><g id="original-02826"><svg xmlns="http://www.w3.org/2000/svg" overflow="hidden" viewBox="0 0 500 500" xmlns:xlink="http://www.w3.org/1999/xlink" version="1.1" preserveAspectRatio="xMidYMid meet">
  <defs>
    <clipPath id="a">
      <path fill-rule="evenodd" d="M1043 505h420v503h-420z" clip-rule="evenodd" fill="rgba(0, 0, 0, 1)" stroke="none"/>
    </clipPath>
    <clipPath id="b">
      <path fill-rule="evenodd" d="M1462 1007h-418V506h418z" clip-rule="evenodd" fill="rgba(0, 0, 0, 1)" stroke="none"/>
    </clipPath>
    <clipPath id="c">
      <path fill-rule="evenodd" d="M1044 505h418v502h-418z" clip-rule="evenodd" fill="rgba(0, 0, 0, 1)" stroke="none"/>
    </clipPath>
    <clipPath id="d">
      <path fill-rule="evenodd" d="M1044 505h418v502h-418z" clip-rule="evenodd" fill="rgba(0, 0, 0, 1)" stroke="none"/>
    </clipPath>
  </defs>
  <g transform="translate(-1043 -505)">
    <path d="M1060.145 672.077a108.95 108.95 0 0 1 2.406-4.653c.249-.457.506-.908.76-1.36.62-1.101 1.257-2.19 1.909-3.259.273-.447.542-.896.82-1.336.868-1.379 1.757-2.736 2.677-4.063l.125-.186.009.002c9.356-13.42 21.344-24.115 34.942-32.595a.02.02 0 0 0-.003-.01c.115-.071.234-.136.349-.208 3.31-2.05 6.71-3.976 10.194-5.77.336-.172.676-.34 1.015-.511a158.387 158.387 0 0 1 4.162-2.032c.449-.212.898-.426 1.351-.634a174.234 174.234 0 0 1 5.204-2.299h.001c27.11-11.386 57.783-16.298 86.082-17.517.066-.004.134-.005.2-.009.054 0 .107-.003.161-.006.835-.036 1.672-.07 2.51-.1.212-.009.427-.016.639-.024l2.201-.08 2.683-.1.22-.008c12.141-.454 24.47-1.11 35.356-4.813 9.746-3.314 18.336-9.063 24.586-19.308 3.481-5.698 6.564-11.806 9.691-17.902v-.005c.463-.901.927-1.801 1.393-2.7.562-1.087 1.13-2.17 1.702-3.252.197-.37.397-.735.595-1.105a203.406 203.406 0 0 1 2.092-3.804c.522-.923 1.054-1.84 1.592-2.75.158-.264.31-.533.469-.795a113.32 113.32 0 0 1 2.093-3.335c.211-.326.43-.646.645-.969a92.712 92.712 0 0 1 1.718-2.485c.23-.321.457-.644.691-.961a74.78 74.78 0 0 1 2.439-3.148c.11-.136.229-.263.341-.397a64.548 64.548 0 0 1 2.314-2.62c.269-.29.544-.575.818-.86a58.13 58.13 0 0 1 2.314-2.262c.21-.195.412-.396.627-.588a52.033 52.033 0 0 1 3.097-2.566c.259-.2.531-.386.796-.583a50.415 50.415 0 0 1 2.666-1.839c.332-.213.664-.428 1.003-.635a49.703 49.703 0 0 1 3.713-2.077c15.111-7.522 32.61-6.913 48.975-5.066 15.974 1.797 31.153 8.335 38.098 23.754 11.225 24.91-2.326 46.869-19.65 63.93l-.002.001a148.795 148.795 0 0 1-3.791 3.606 174.942 174.942 0 0 1-3.865 3.451 154.335 154.335 0 0 1 2.403 8.528c.291 1.154.567 2.312.833 3.476 1.276 5.537 2.284 11.184 2.93 17.054 1.39 12.773.548 25.57-2.713 37.502l.027.03a85.323 85.323 0 0 1-.99 3.34c-.037.115-.072.231-.11.344a82.029 82.029 0 0 1-3.918 9.938l-.086.182a77.087 77.087 0 0 1-5.32 9.429l-.004.008a75.155 75.155 0 0 1-2.025 2.9l-.07.1c-.003 0-.003-.003-.004-.003a73.286 73.286 0 0 1-17.144 16.726c-17.067 11.945-38.546 15.496-57.165 8.5-.005.007-.008.015-.013.024-.58-.217-1.147-.474-1.72-.712-.45-.186-.904-.359-1.351-.559a53.965 53.965 0 0 1-3.531-1.724c-.017-.01-.032-.02-.047-.027a52.29 52.29 0 0 1-2.07-1.174c-.083-.05-.163-.103-.246-.153a54.233 54.233 0 0 1-1.841-1.156c-.165-.108-.326-.227-.49-.337a51.337 51.337 0 0 1-1.562-1.083c-.295-.213-.583-.443-.874-.664-.381-.288-.766-.57-1.142-.87a57.352 57.352 0 0 1-1.977-1.655 21.011 21.011 0 0 1-.652-.602c-.086-.083-.178-.176-.266-.262-.137-.136-.273-.272-.413-.415l-.392-.406-.289-.303c-.796-.842-1.638-1.767-2.521-2.679l-.017-.017a55.75 55.75 0 0 0-.857-.865 29.976 29.976 0 0 0-.84-.8c-1.901-1.749-3.927-3.162-5.987-3.36-.601-.058-1.245-.019-1.909.078-.324.047-.654.112-.988.19l-.064.013c-.33.078-.666.171-1.005.278-.023.007-.045.013-.069.022a19.203 19.203 0 0 0-1.061.37c-3.872 1.466-8.1 4.284-11.326 6.251-.078.048-.157.097-.234.142a46.6 46.6 0 0 1-.694.414c-.09.052-.183.11-.271.161-.3.174-.59.34-.864.486a268.397 268.397 0 0 0-4.03 2.213l-.146.082c-1.359.764-2.71 1.541-4.05 2.34-10.163 6.055-19.583 13.282-25.536 23.81a55.638 55.638 0 0 0-3.586 7.657 54.517 54.517 0 0 0-3.234 13.375 53.167 53.167 0 0 0-.247 3.08c-.007.138-.017.28-.023.418a53.856 53.856 0 0 0-.055 3.189l.001.054a55.597 55.597 0 0 0 .185 3.641 54.14 54.14 0 0 0 .325 3.013c1.831 13.095 8.465 25.45 19.422 34.397a51.858 51.858 0 0 0 7.832 5.278c.908.498 1.829.959 2.759 1.399.181.086.364.173.547.256a53.833 53.833 0 0 0 6.365 2.453 58.16 58.16 0 0 0 5.963 1.536l.688.135a62.84 62.84 0 0 0 3.047.513l.012.002a65.31 65.31 0 0 0 3.817.413c1.03.085 2.063.155 3.103.195 15.387.578 30.681.803 43.643 9.506.434.292.864.595 1.293.902.669.478 1.335.97 1.989 1.503a45.36 45.36 0 0 1 2.3 2.013c.224.208.439.427.657.638a45.72 45.72 0 0 1 1.52 1.532 50.723 50.723 0 0 1 2.092 2.376c.178.217.359.43.534.649a49.823 49.823 0 0 1 1.614 2.137c.058.082.12.161.178.244a54.38 54.38 0 0 1 3.359 5.432l.07.134c.482.895.941 1.806 1.379 2.73l.096.204c.447.955.876 1.922 1.277 2.902a.347.347 0 0 0-.015.02c7.691 18.747 7.222 42.143 3.891 60.534-1.633 9.028-4.348 17.816-7.968 26.184l-.002.003a122.354 122.354 0 0 1-6.695 13.216c0 .001-.002.001-.002.003a121.153 121.153 0 0 1-2.566 4.188l-.022.034a118.68 118.68 0 0 1-2.709 4.043c-.017.023-.034.045-.049.07-.92 1.312-1.865 2.608-2.836 3.883l-.09.115a120.653 120.653 0 0 1-2.95 3.712l-.129.152c-1 1.202-2.02 2.382-3.063 3.541-.056.063-.114.122-.169.185a117.34 117.34 0 0 1-3.168 3.368c-.07.071-.143.14-.212.212a117.218 117.218 0 0 1-3.269 3.196l-.243.221a113.056 113.056 0 0 1-3.378 3.031c-.086.075-.172.145-.259.219a109.77 109.77 0 0 1-3.495 2.872c-.086.068-.176.134-.262.201-1.191.93-2.397 1.84-3.624 2.72-.079.057-.162.112-.242.17a106.374 106.374 0 0 1-3.766 2.57l-.213.133a105.736 105.736 0 0 1-4.052 2.498 104.87 104.87 0 0 1-4.113 2.284l-.004.001c-1.75.919-3.532 1.776-5.334 2.59-.21.096-.422.189-.634.282-.173.076-.344.154-.516.23l-.014-.011a97.658 97.658 0 0 1-9.314 3.536c-1.177.377-2.363.73-3.556 1.062-.123.034-.245.068-.369.1a94.55 94.55 0 0 1-10.815 2.302c-.159.024-.318.055-.477.078a91 91 0 0 1-2.975.378 91.75 91.75 0 0 1-4.289.4c-.612.042-1.227.07-1.842.1-.879.044-1.758.093-2.642.112-1.193.025-2.392.02-3.597 0-.159-.004-.318.003-.477 0l.008-.014a92.894 92.894 0 0 1-5.751-.273c-26.071-2.134-52.176-12.91-69.692-32.886-8.741-9.967-13.954-20.93-18.945-33.046-.116-.282-.233-.556-.35-.839-2.948-7.2-5.963-17.637-14.654-15.282-.87.237-1.733.484-2.591.735-.194.056-.387.113-.58.171-10.438 3.084-20.152 6.767-30.264 4.26l-.008-.002c-2.932-.729-5.897-1.95-8.926-3.894-11.841-7.607-18.16-21.72-18.566-35.511-.458-15.96 8.063-29.854 17.685-41.9 8.318-10.42 20.972-21.043 23.242-34.919 2.084-12.69-10.875-20.535-19.057-27.99-10.351-9.42-18.076-20.602-22.921-33.75-9.501-25.805-5.216-55.473 6.541-79.768zm348.37 119.038c-.085.043-.167.092-.25.134a44.9 44.9 0 0 0-2.105 1.13 43.374 43.374 0 0 0-2.287 1.418l-.104.069c-.718.48-1.424.98-2.115 1.501-.046.036-.09.072-.136.105-.68.52-1.35 1.057-2.002 1.619-.04.034-.078.07-.117.105a42.113 42.113 0 0 0-7.208 8.056l-.007.01c-4.005 5.87-6.515 12.84-6.671 20.466-.239 11.63 5.184 23.585 14.47 30.045l.004.002a27.643 27.643 0 0 0 3.544 2.093c.518.256 1.046.495 1.582.719l.288.12c.555.223 1.12.432 1.694.618.039.012.076.027.117.04.621.2 1.255.377 1.897.53.093.023.19.04.283.062a26.286 26.286 0 0 0 3.576.561c.193.017.383.037.576.051.657.045 1.321.072 1.995.071.902-.004 1.8-.063 2.696-.154.16-.017.323-.028.484-.046.766-.092 1.526-.22 2.282-.375.329-.066.659-.132.986-.21.61-.144 1.216-.306 1.818-.49.493-.148.984-.311 1.47-.484.071-.025.14-.054.213-.08a32.903 32.903 0 0 0 2.912-1.222c.004-.005.007-.012.012-.017 3.266-1.56 6.28-3.644 8.81-6.185 1.519-.626 3.018-1.347 4.458-2.243 15.034-9.35 20.211-29.692 11.684-45.084-10.295-18.583-29.488-20.572-44.848-12.926.002-.004 0-.005-.002-.01z" clip-path="url(#d)" fill="rgba(120, 122, 195, 1)" stroke="none"/>
    <path d="M1399.987 855.78zm3.782-61.914zm.104-.069zm-4.357 3.296zm-187.004-201.46zm179.679 209.62zm15.403 44.041c3.131-3.432 7.222-9.021 6.992-13.933-.256-5.427-7.542-11.648-10.759-15.618-3.644-4.498-8.113-9.277-11.643-14.48-4.005 5.87-6.515 12.84-6.671 20.466-.239 11.632 5.184 23.586 14.47 30.046 2.75-1.826 5.314-3.96 7.611-6.48zm.92-58.18c.827 1.816 2.204 3.676 3.685 5.438.095-.46.244-.949.484-1.488 1.467 1.233 3.078 2.388 2.579 4.699-.092-.007-.16-.027-.248-.038 1.052 1.142 2.028 2.19 2.74 3.058 8.673 10.591 20.502 21.312 18.23 36.304-1.04 6.867-3.743 13.046-7.582 18.49-.95.456-1.923.862-2.912 1.223 4.396-1.594 8.462-4.14 11.733-7.426 1.52-.627 3.019-1.348 4.459-2.244 15.034-9.348 20.211-29.692 11.683-45.084-10.828-19.547-31.505-20.74-47.205-11.667.774-.445 1.56-.867 2.354-1.264zm10.209 69.327c-.161.019-.324.029-.485.046.161-.017.322-.027.485-.046zm-5.177.129zm11.73-1.687zm-209.614-263.374zm195.886 264.846zm-4.336-.988zm-.117-.038zm-3.566-1.457zm7.447 2.397zm10.028-.202c.33-.066.66-.132.986-.21-.328.076-.655.144-.986.21zm-106.845 96.327zm-15.184 19.103zm6.399-7.094zm6.005-7.863zm.049-.07zm-2.975 4.068zm-53.609-146.453zm29.39 170.081zm3.886-2.92zm3.754-3.09zm27.133-144.341zm-9.852-8.965zm7.76 6.59zm-2.178-2.173zm-56.159-14.533h.012-.012zm3.068.349zm22.346 169.251zm40.772-141.924zm-3.431-5.566zm2.089 98.144zm-2.267-98.387zm-100.61-245.272l.221-.008-.221.008zm57.165 110.374l-.054-.054.054.054zm-66.265 60.41l-.002-.055.002.055zm-28.392 9.892c9.268-2.688 19.134-2.724 28.902-3.241 1.831 13.096 8.465 25.452 19.422 34.397a51.825 51.825 0 0 0 7.831 5.278l-.003-.001c-.442.843-.857 1.69-1.213 2.534-5.389 12.81-4.331 24.991-.235 37.954 3.244 10.265 2.382 20.592-6.033 28.221-4.777 4.333-10.12 7.634-14.909 11.518-.671-.22-1.384-.364-1.931-.578-1.423-.553-3.771-.321-4.161 1.884-.271 1.53.282 2.504 1.176 3.218-2.192 2.34-4.135 4.981-5.649 8.175-6.273 13.22-2.953 28.179 3.92 40.47 5.964 10.67 16.513 19.072 20.761 30.674 3.763 10.27.321 21.807-5.94 30.472.159.003.318-.002.477 0a96.388 96.388 0 0 1-6.22-.287c-26.071-2.134-52.176-12.91-69.692-32.886-8.742-9.967-13.954-20.93-18.945-33.047 8.227-5.238 15.663-11.848 22.123-19.31 1.307 2.552 4.528 4.096 5.148 7.008-.029.03-.06.056-.088.085l.003.002c.015.018.037.032.053.05-2.574-1.358-4.124.563-5.874 1.849l-.005-.039-.12-.008c-.434-1.16-.539-2.643-2.316-2.538-.293.017-.85.711-.777.894.55 1.401 1.814 1.564 3.093 1.644.014.037.025.076.039.111.002 0 .081-.103.081-.103l-.079.103c.028-.02.056-.044.084-.064l.234 1.916c.967.91 2.377.908 3.42 1.657 1.891.312 3.836.366 4.65-1.741.82-2.12-1.412-2.572-2.43-3.68.025.013.047.017.072.03h.002c-.01-.06-.032-.112-.044-.17 1.472-1.399 2.907-3.027 4.974-.731.45-.49.706-.998.83-1.52.764.659 2.111.839 3.562.932l3.558-2.521c.933-1.834-.612-2.811-1.398-4.05-1.601.416-1.015 1.793-1.235 2.815h-.001c-1.71.757-2.901-1.683-4.637-.753-.108.26-.152.468-.225.697-.014-.036-.024-.07-.039-.105-.812-1.566-2.565-2.321-3.344-3.907-.973-1.964-2.213-2.411-3.548-2.311.514-.66 1.041-1.308 1.539-1.978 17.016-22.84 33.257-54.854 25.168-83.927-3.444-12.377-11.523-23.188-14.305-35.73-2.347-10.578 4.684-16.578 14.274-19.362zm-16.882 151.403c-.742.105-1.484.21-2.228.313.408.756.1 2.277 1.27 2.133 1.047-.127.993-1.467.958-2.446zm33.48 25.744c.446.654 1.039 1.375 2.037.919.726-.33.806-.974.62-1.652-.248-.908-.78-1.427-1.933-1.06-.605.36-1.383.83-.724 1.793zm-14.257-42.551c-2.293 2.494-5.697 2.741-8 4.927-1.695 1.68-3.426 3.72-3.051 6 .247 1.497 2.327-.194 3.588.033 1.651 3.087 2.635.562 3.818-.285.135-.07.273-.142.408-.218.745-.3 1.667-.351 1.925-1.347l1.792-1.39c2.258-1.399 1.187-3.996 2.024-5.957.69-1.621-.932-3.473-2.504-1.763zm80.765-91.234l-.647-.023c15.386.577 30.68.802 43.643 9.506-2.292 4.446-5.282 8.612-8.43 12.214-12.329 14.105-30.292 31.046-26.809 51.754 1.667 9.911 8.522 15.997 13.801 24.004 4.968 7.536 8.284 16.289 9.17 25.294 1.877 19.086-6.909 36.091-21.523 47.92-2.034 1.648-3.137 3.662-3.52 5.787-1.75.918-3.532 1.775-5.335 2.59l-.262-1.877-3.207.363 2.319 2.024.517-.23a98.02 98.02 0 0 1-9.842 3.754 57.295 57.295 0 0 0 2.129-9.396c1.94-13.998-1.52-27.28-9.309-39.02-6.405-9.653-18.905-20.16-19.373-32.533-.386-10.215 15.155-15.948 21.508-21.944 9.585-9.045 14.977-22.232 15.417-35.312.442-13.131-9.476-26.131-4.189-38.88.94-2.27 2.3-4.272 3.942-5.995zm-7.317 94.99c-.335-1.201-1.523-1.135-2.458-1.437-1.06.1-.774.895-.762 1.501.032 1.547 1.01 1.427 2.111 1.215.767-.146 1.338-.46 1.109-1.28zm17.252 79.104zm-19.969-402.953h-.002c9.746-3.315 18.336-9.064 24.586-19.308 3.998-6.542 7.464-13.624 11.082-20.61-.466.9-.93 1.8-1.392 2.701.682 6.186 6.271 10.828 12.273 11.984.115.15.227.3.379.447.72.693 1.389.437 1.894-.178 1.455.059 2.902-.088 4.276-.493 1.797-.528 3.595-1.06 5.394-1.588.625.479 1.131.003 1.624-.478 4.638-1.36 9.277-2.724 13.913-4.093.078.44.124.907.095 1.435-.815.751-2.773 1.177-.215 2.484 3.335 1.703 6.783 1.808 10.344 1.586 1.357-1.409 1.27-2.333.691-3.094a46.25 46.25 0 0 0 2.312 1.592c1.486.972 2.98 3.178 4.908 1.582 1.902-1.577.627-3.694-.236-5.52-2.336-.97-3.108-4.97-6.72-3.47.071-.1.131-.207.18-.316 2.983-1.074 6.201-2.124 9.139-2.482 1.206 1.44 2.963 2.78 4.115 1.086.283-.416.361-.713.308-.936.119.028.244.044.359.076 4.1 1.177 4.35 6.994 3.607 12.988-.17.022-.329.039-.505.065-.303-.21-.608-.211-.913-.004-1.198-2.496-4.042-.974-5.702-2.341-1.362.268-1.943 1.143-1.931 2.48.581.971.159 2.467 1.57 3.004 3.669 3.434-1.83 6.196-.693 9.446-.525 2.527-1.118 5.062.805 7.32.396.604 1.323.907 1.067 1.88-1.076 1.282-1.652 2.635-.339 4.08.288.316 1.047.674 1.235.535 1.298-.96.952-2.456 1.015-3.797.015-.316-.214-.639-.331-.959.697-.498.592-1.43 1.944-1.782a.956.956 0 0 1 .072-.02c.014 13.062 4.488 25.89 16.627 32.846 4.894 2.804 10.019 4.3 15.241 4.911a154.155 154.155 0 0 0-1.68-8.327c1.275 5.537 2.283 11.184 2.929 17.054 1.521 13.979.406 28.004-3.675 40.874.351-1.105.683-2.218.99-3.34-.317-.35-.639-.703-.952-1.05-7.242-8.05-17.539-12.84-28.326-9.092-5.504 1.911-7.213 4.857-12.238.778-4.684-3.802-7.375-10.04-9.259-15.604-4.154-12.262-5.602-25.274-10.005-37.462-4.877-13.502-13.088-25.557-29.075-25.139-12.503.327-22.896 8.566-35.539 8.577-1.761 0-3.508-.133-5.246-.328zm107.255 39.722c.233 1.322 1.132 2.05 2.5 1.857 1.083-.153 1.93-.664 1.597-1.983-.681-1.25-1.457-2.622-2.955-2.404-1.016.147-1.325 1.484-1.142 2.53zm-18.114-15.667c.197.91.91 1.475 1.815 1.19.682-.218.75-.982.537-1.677-.28-.804-.678-1.678-1.655-1.497-1.095.203-.858 1.235-.697 1.984zm-6.303-34.643c1.794.351 2.619-1.25 2.1-3.138.285-1.368.249-3.329-1.097-3.338-2.585-.015.049 2.504-1.14 3.445-1.083 1.096-1.911 2.63.137 3.031zm-5.284-5.954c1.608.44 3.054.446 3.759-1.44 1.137-3.038-2.588-.403-2.544-2.173-.583-.508-.934-1.728-2.028-.664-.374 1.55-2.38 3.406.813 4.277zm-10.694-8.124c.139.779 1.242 1.855 2.024 1.948 1.435.173 1.225-1.27 1.36-2.251-.535-.99-.581-2.718-2.193-2.235-.636.191-1.33 1.747-1.191 2.538zm-7.725 13.322c.461 1.7 2.236 1.965 3.852 1.894 1.137-.05 2.302-.937 3.334.36 4.869 6.112 4.877 6.106 11.467 2.64l-4.039-4.626c-1.258-1.015-3.234-1.51-2.761-3.787-3.124-4.1-6.258-1.667-9.259.112-1.244.735-3.092 1.574-2.594 3.407zm-12.036-1.39c.393 4.235 2.617 2.107 4.465 1.289 1.615-.995 1.046-3.284.451-3.396-1.841-.347-3.413 1.025-4.916 2.108zm-18.043-10.544c.08 1.338 1.13 1.49 2.265 1.473 2.265-.032 2.902-1.834 3.139-3.408.122-.808-1.384-1.36-2.993-1.162-.87.657-2.526 1.157-2.411 3.097zm-216.339 89.99c-.042.06-.083.125-.125.186 14.208-20.468 34.512-34.65 57.349-44.239-7.767 3.261-15.236 7.06-22.274 11.452 5.631 20.046 22.132 34.412 41.683 41.165 10.489 3.622 22.093 4.89 33.143 4.217 13.246-.808 25.182-5.553 38.063-8.016 9.058-1.731 18.736-1.075 19.507 9.719.862 12.094-1.723 23.603 3.359 35.168 1.183 2.69 2.733 5.258 4.574 7.656-10.162 6.056-19.583 13.284-25.536 23.812a55.649 55.649 0 0 0-3.586 7.657c-.906.072-1.817.135-2.736.18-13.428.677-27.229-.023-40.085 4.626-26.424 9.554-37.21 34.326-26.891 60.317 4.208 10.6 11.238 21.007 12.6 32.516-.749.673-1.293 1.47-.974 2.809.213.898.398 1.881 1.219 1.962-.116 12.837-6.284 25.79-12.088 36.795-12.019 22.786-31.446 43.981-59.081 43.746-1.816-.015-3.408.303-4.799.859-2.932-.729-5.897-1.95-8.926-3.893-11.841-7.608-18.16-21.721-18.566-35.512-.458-15.96 8.063-29.854 17.685-41.9 8.318-10.42 20.972-21.043 23.242-34.919 2.084-12.69-10.875-20.535-19.058-27.99-10.35-9.42-18.075-20.602-22.92-33.75.171.466.375.91.553 1.371 10.089.774 20.565-2.582 27.76-9.748 6.876-6.85 10.647-16.29 17.29-23.365 7.278-7.753 18.013-11.686 28.545-11.54 5.27.073 10.543 1.16 15.356 3.32 2.157.97 4.296 2.844 6.631 3.273 5.705 1.048 13.331-1.642 16.005-6.847 3.372-6.567-1.149-14.97-7.671-18.432-4.26-2.262-9.1-2.97-13.865-3.144-7.583-.28-15.162-1.622-22.758-1.207-8.053.439-16.888 2.01-23.591-2.479-5.631-3.771-8.019-10.753-12.234-16.061-4.217-5.314-10.242-8.5-16.8-9.764zm9.875 232.746c-1.081.473-1.84 1.147-1.557 2.477l3.064-.301.01-.017c.468-1.405.268-2.339-1.517-2.159zm-2.482-3.644c2.387.584 2.831-.317 1.797-2.348-.987-.87-2.222-1.389-3.029-.131-.63.983.571 1.754 1.232 2.479zm12.968 32.684c-1.821-.1-3.065 1.577-3.121 2.265-.137 1.708 1.906 1.805 3.085 1.93 1.581.168 2.345-1.743 2.505-2.704.244-1.438-1.509-1.349-2.469-1.491zm2.439-6.176c2.118-5.418.449-10.725-.478-16.052-.701-2.204-.501-5.954-4.443-2.583-1.296.584-2.592 1.17-3.888 1.753-.412.251-.447.486-.1.705a2.215 2.215 0 0 0-1.057.262c-.62-.648-1.455-.999-2.189-1.489l-1.102-.908c-.954-1.048-2.291.192-3.295-.548l.027.015c-1.442-.844-2.065-.385-1.962 1.231 1.242 2.903 3.115 5.65 2.241 9.076-.584 1.899-1.026 3.855-1.783 5.682-1.449 3.485.713 5.686 3.254 6.287 3.217.76 6.539 2.249 10.044 1.242 3.357.246 5.514-.725 4.731-4.673zm4.21-29.242c-1.2-.652-2.333-1.577-3.615-1.894-2.826-.694-2.357.918-1.554 2.586 1.213.502 2.392 1.125 3.646 1.48 2.382.675 1.963-.778 1.523-2.172zm33.545-86.266c-.017 1.287.566 2.469 2.405 1.943.942-.27 2.167-1.037 1.42-2.174-.664-1.012-1.252-2.699-2.912-2.413-1.1.188-1.645 1.135-.913 2.644zm-3.007-20.46c-1.203.454-2.431.772-2.296 2.346.105 1.23.873 1.795 2.028 1.724 1.482-.09 1.958-1.292 2.075-2.463.117-1.204-.613-1.854-1.807-1.607zm-1.283-14.514c1.173-.89.148-2.015-.994-3.233-.23.946-.412 1.411-.447 1.888-.08 1.048.078 2.378 1.441 1.345zm-20.106 50.396c-1.325-1.81-3.337-1.436-3.549.178-.268 2.036 1.947 2.285 3.749 2.06.459-.793.434-1.541-.2-2.238zm14.991-25.395c-.109-.122-.961.115-1.127.391-.747 1.24-.302 2.178 1.491 3.096.508-1.426.477-2.534-.364-3.487zm3.399-1.257c1.367.106 1.759-.725 1.649-1.904-.093-.987-.652-1.504-3.078-1.367.413-.017-.21.408-.055 1.504.126.882.434 1.684 1.484 1.767zm4.298 55.78c-.96-.002-1.064.778-1.042 1.398.029.775.019 1.879 1.147 1.822.427-.022 1.061-.858 1.154-1.4.14-.826-.137-1.695-1.259-1.82zm4.591-13.398c-2.873.401-3.529-1.406-4.394-3.278-1.063-1.315-2.37-2.087-3.944-1.042-1.284.854-.728 2.321-.217 3.23.974 1.738 1.423 4.604 4.645 3.235.19.979.378 1.957.566 2.936.664.696 1.364.601 2.082.09 2.37 1.113 3.651-.546 4.032-2.24.359-1.595-1.464-3.114-2.77-2.93zm5.626-21.345c-1.919-3.471-3.746-3.87-5.838-1.275-.525 3.623 2.421 1.883 3.849 2.49l.051.027c.835-.117 1.699-.193 1.938-1.242zm186.644-284.993a435.527 435.527 0 0 1-1.338 7.207c24.334-7.503 52.501-12.302 62.724 15.43 4.915 13.33.368 25.934-.764 39.337-.423 5.025-.359 9.567 4.764 11.71.329.136.664.248 1.001.36 17.325-17.061 30.875-39.02 19.65-63.93-6.945-15.419-22.123-21.958-38.098-23.754-16.364-1.847-33.863-2.457-48.974 5.066.418-.209.847-.388 1.269-.585.427 2.992.283 6.198-.234 9.16zm-198.482 91.029c27.109-11.386 57.783-16.3 86.082-17.518l.2-.008c18.568 17.279 46.004 25.257 70.744 17.228 3.161-1.027 11.145-5.818 14.296-4.878 2.714.81 4.416 8.875 5.195 11.479 3.214 10.747 4.737 21.94 8.298 32.589 2.493 7.462 6.578 15.477 11.958 22.143-.458.19-.978.603-1.596 1.39-1.464 1.863-4.389 1.186-4.04 3.752.447 3.288.123 6.787 1.958 9.813.513.006 1.069-.117 1.535.037 4.733 1.568 9.056-.059 11.475-4.31.271-.476.447-.904.576-1.31 7.774 5.354 17.081 7.505 27.49 3.46.819-.318 3.697-1.331 4.65-1.951.348.242.748.542 1.009.877 2.502 3.222 5.222 6.42 7.85 9.55.16.188.327.37.49.556a73.312 73.312 0 0 1-17.146 16.72c-19.13 13.388-43.809 16.271-63.781 5.528a54.511 54.511 0 0 0 6.599 2.997c4.083-6.388.195-17.076-8.519-16.265-4.541.424-9.781.729-14.59-.215l.015.015c-1.901-1.749-3.927-3.162-5.987-3.36-.601-.057-1.245-.019-1.909.078a15.124 15.124 0 0 1-1.95-1.657c-6.988-7.13-3.217-19.526-3.7-28.484-1.683-31.234-29.762-41.729-57.009-34.517-12.967 3.432-24.463 7.656-38.066 7.136-10.696-.408-21.767-3.697-30.142-10.544-5.824-4.756-10.194-12.327-11.985-20.331zm236.613 92.769c.655.633 1.377 1.077 2.248.474.4-.278 1.04-.92.965-1.05-.465-.812-1.346-1.061-2.195-.846-.591.149-1.177.597-1.018 1.422zm-61.734-3.53c.361 3.618 1.694 5.598 5.562 3.296-1.659-1.428-2.418-4.377-5.562-3.296zm-57.751-77.846c4.803 3.628 4.315 8.815 4.267 13.876-.018 2 2.193 4.245 2.477 4.026 3.1-2.38 6.549 1.917 9.422-.682.224-.202.285-.583.422-.88.764.89 1.403 1.947 2.323 2.627 1.27.939 1.509 4.14 4.15 2.277 2.275-1.606.711-3.875.357-5.703-.296-1.533-1.907-2.744-3.596-1.864-2.351 1.227-1.73-1.544-2.865-1.822a18.35 18.35 0 0 0-.211-.979c4.99-5.925 4.965-5.932-.068-11.862-.62-.73-.788-1.844-1.166-2.78.149-1.838-1.172-2.593-2.512-3.245-.254-.124-1.047.223-1.131.496-.607 1.955.577 3.075 2.058 4.006.715 1.59 1.641 3.208-.574 4.418-3.827-.034-7.346-.778-9.789-4.128-.162-.222-.633-.268-.97-.305-1.027-.117-1.947-2.06-3.036-.354-.579.906-.352 2.276.442 2.878zm-14.9-12.926c-.031 1.087.228 1.977 1.578 1.765 1.23-.195 1.435-1.096 1.269-2.165-.948.132-1.899.266-2.847.4zm-146.124 318.177c10.11 2.507 19.826-1.176 30.264-4.26-10.438 3.079-20.154 6.767-30.264 4.26zm231.631-61.599c-4.384 4.979-14.728 14.907-11.66 21.961 1.935 4.45 6.509 8.177 9.158 12.244 3.159 4.848 5.736 10.226 7.742 15.646 2.466 6.668 3.898 13.772 4.379 20.922 3.62-8.368 6.335-17.156 7.969-26.183 3.504-19.357 3.86-44.27-5.154-63.458.448.955.876 1.922 1.278 2.9-4.246 5.589-9.123 10.756-13.712 15.968zm-57.771 134.24zm-18.194 3.923zm14.269-2.76zm19.739-7.792zm-42.783 11.162c.886-.019 1.763-.068 2.643-.112-.88.044-1.757.093-2.643.112zm-116.047-81.605zm-49.705-259.314c-.254.452-.511.903-.76 1.36.249-.457.506-.906.76-1.36zm2.731-4.595c-.278.44-.547.891-.82 1.336.271-.447.542-.896.82-1.336zm170.263 345.07zm59.189-27.637zm23.305-462.63c.332-.213.664-.428 1.003-.635-.341.207-.671.422-1.003.635zm72.136 79.907zM1278.53 706.532l-.017-.017c.005.005.012.01.017.017zm104.75-103.294zm-71.666-81.39c.211-.195.412-.396.627-.588-.215.192-.416.393-.627.588zM1267.87 701.77l.064-.013-.064.013zm40.612-176.8zm6.854-6.276c.259-.2.532-.386.796-.583-.264.195-.537.383-.796.583zm70.346 93.072a151.1 151.1 0 0 0-.643-2.475c.223.822.433 1.65.643 2.475zm-94.489 105.352zm-4.138-2.73zm3.892 2.577zm-7.885-5.767zm-2.011-1.988l.29.303-.29-.303zm100.606-25.576zm-99.512 26.7c-.137-.136-.273-.272-.413-.414.139.142.276.278.413.414zm99.599-26.882zm-170.165 85.632c.015.222.032.444.051.667-.019-.22-.034-.445-.051-.667zm86.663-230.2c-.159.265-.312.532-.469.797.157-.265.31-.532.469-.796zm-2.778 4.826zm10.364-15.723c.11-.136.228-.263.34-.397-.112.134-.23.261-.34.397zm-94.059 231.384zm81.723-212.03c.196-.37.396-.736.594-1.105-.198.368-.398.733-.594 1.104zM1241.97 813.84c.181.087.364.173.547.256-.185-.085-.366-.17-.547-.256zm43.07-100.987c.376.3.761.583 1.142.871-.381-.288-.766-.571-1.142-.871zm15.939-178.272c-.215.323-.433.642-.645.97.212-.328.43-.647.645-.97zm-89.458 227.87c-.006.14-.017.28-.022.418.005-.139.016-.279.022-.418zm42.89-53.76l-.234.141.234-.142zm48.977-177.556c-.233.317-.46.64-.691.96.231-.32.458-.643.691-.96zm-36.521 170.913zm-1.13.39l.007-.004-.007.004zm-12.253 6.807c-.09.053-.183.111-.271.161l.271-.16zm-4.604 107.304c-.204-.064-.405-.13-.607-.196.203.066.405.132.607.196zm-.561-104.443l-.146.08.146-.08z" clip-path="url(#d)" fill="rgba(65, 58, 132, 1)" stroke="none"/>
    <path d="M1103.79 624.619c7.04-4.394 14.507-8.19 22.275-11.452h.001c1.791 8.003 6.161 15.575 11.989 20.336 8.375 6.845 19.446 10.134 30.142 10.544 13.601.52 25.098-3.704 38.066-7.136 27.247-7.212 55.325 3.283 57.009 34.517.483 8.957-3.288 21.355 3.7 28.484.608.622 1.267 1.16 1.95 1.657-.324.047-.654.112-.988.19l-.064.013a14.04 14.04 0 0 0-1.005.278c-.024.007-.046.013-.069.022-.348.11-.698.23-1.054.366l-.007.003c-3.872 1.467-8.101 4.285-11.326 6.252l-.234.142c-.239.144-.467.282-.694.414-.09.052-.183.11-.271.161-.3.174-.59.34-.864.486a268.397 268.397 0 0 0-4.176 2.295 187.287 187.287 0 0 0-4.051 2.34c-1.841-2.4-3.393-4.969-4.573-7.657-5.084-11.566-2.497-23.074-3.36-35.168-.77-10.795-10.448-11.45-19.506-9.719-12.882 2.462-24.818 7.207-38.063 8.015-11.051.674-22.656-.594-33.144-4.216-19.551-6.755-36.05-21.122-41.683-41.167zm170.124 268.199c1.667 9.911 8.523 15.997 13.801 24.004 4.969 7.536 8.284 16.289 9.17 25.294 1.877 19.086-6.908 36.091-21.523 47.92-2.034 1.648-3.137 3.662-3.52 5.787l.004-.002a102.743 102.743 0 0 0 4.113-2.284l.133-.076c1.325-.776 2.63-1.586 3.919-2.421.071-.046.142-.088.213-.134a106.512 106.512 0 0 0 3.766-2.57c.08-.058.163-.112.242-.17 1.227-.879 2.433-1.787 3.624-2.719.086-.068.176-.132.262-.202a111.04 111.04 0 0 0 3.495-2.871c.087-.073.173-.144.259-.219a109.446 109.446 0 0 0 3.378-3.031c.08-.074.163-.147.242-.222a116.243 116.243 0 0 0 3.27-3.195c.069-.071.142-.14.212-.212 1.077-1.1 2.132-2.223 3.167-3.368.056-.061.114-.122.17-.185a121.26 121.26 0 0 0 3.063-3.541l.128-.152a114.517 114.517 0 0 0 3.041-3.828 118.346 118.346 0 0 0 2.836-3.883c.017-.024.034-.046.049-.07a126.82 126.82 0 0 0 2.731-4.076 122.822 122.822 0 0 0 2.566-4.188l.002-.004c2.49-4.256 4.73-8.671 6.695-13.215l.002-.003c-.483-7.15-1.915-14.254-4.38-20.923-2.004-5.42-4.582-10.8-7.741-15.645-2.651-4.066-7.225-7.796-9.158-12.245-3.066-7.055 7.276-16.981 11.66-21.96 4.589-5.213 9.466-10.38 13.713-15.966a65.458 65.458 0 0 0-1.277-2.9l-.097-.206a58.564 58.564 0 0 0-1.379-2.73c-.024-.043-.046-.087-.069-.133a54.575 54.575 0 0 0-3.36-5.432c-.057-.083-.12-.16-.177-.244a52.27 52.27 0 0 0-1.615-2.138c-.174-.218-.354-.433-.533-.65a49.466 49.466 0 0 0-2.093-2.375 47.652 47.652 0 0 0-1.519-1.53c-.22-.213-.434-.431-.657-.64a45.805 45.805 0 0 0-2.301-2.012 39.299 39.299 0 0 0-1.989-1.504 61.5 61.5 0 0 0-1.292-.9c-2.292 4.445-5.282 8.612-8.43 12.213-12.334 14.107-30.299 31.048-26.816 51.756zm-208.692-230.013a111.14 111.14 0 0 0-1.909 3.259c-.254.452-.512.903-.761 1.36a108.896 108.896 0 0 0-2.405 4.653c-11.757 24.295-16.043 53.963-6.522 79.767.171.465.374.909.552 1.37 10.09.774 20.565-2.582 27.76-9.748 6.876-6.85 10.647-16.29 17.291-23.365 7.277-7.753 18.012-11.686 28.544-11.54 5.27.073 10.544 1.16 15.356 3.32 2.157.97 4.297 2.844 6.631 3.273 5.705 1.048 13.332-1.642 16.005-6.847 3.373-6.567-1.148-14.97-7.67-18.432-4.261-2.262-9.101-2.97-13.866-3.144-7.583-.28-15.162-1.622-22.758-1.207-8.053.439-16.887 2.01-23.591-2.479-5.631-3.771-8.019-10.753-12.234-16.061-4.22-5.314-10.247-8.5-16.805-9.764-.042.06-.083.125-.125.186a109.163 109.163 0 0 0-2.676 4.063c-.275.44-.546.89-.817 1.336zm172.77 152.17c-5.389 12.81-4.331 24.99-.235 37.953 3.244 10.265 2.382 20.592-6.033 28.221-4.777 4.332-10.12 7.634-14.909 11.518-.671-.22-1.384-.364-1.931-.578-1.423-.554-3.771-.322-4.161 1.884-.271 1.53.282 2.504 1.176 3.218-2.192 2.339-4.135 4.98-5.649 8.175-6.273 13.22-2.953 28.179 3.92 40.47 5.964 10.67 16.513 19.071 20.761 30.674 3.763 10.269.321 21.807-5.94 30.471.159.004.318-.001.477 0 1.203.02 2.404.026 3.597 0 .886-.018 1.763-.067 2.642-.111.615-.03 1.23-.058 1.842-.1a93.243 93.243 0 0 0 4.289-.4 95.912 95.912 0 0 0 2.975-.378c.159-.024.318-.054.477-.078a95.37 95.37 0 0 0 10.815-2.303l.369-.1a99.768 99.768 0 0 0 3.556-1.062 57.196 57.196 0 0 0 2.13-9.396c1.939-13.998-1.52-27.28-9.309-39.02-6.405-9.653-18.905-20.16-19.373-32.533-.386-10.215 15.155-15.948 21.507-21.944 9.585-9.046 14.977-22.232 15.418-35.312.442-13.131-9.477-26.131-4.19-38.881.942-2.27 2.303-4.27 3.944-5.996l-.647-.023a70.607 70.607 0 0 1-3.104-.195 64.29 64.29 0 0 1-3.816-.414l-.012-.001a61.884 61.884 0 0 1-3.048-.514 58.548 58.548 0 0 1-6.65-1.67 53.84 53.84 0 0 1-6.365-2.453l-.547-.257c-.93-.44-1.853-.901-2.76-1.4l-.003-.001c-.44.844-.857 1.688-1.213 2.535zm-65.814-64.172c-26.424 9.554-37.21 34.326-26.891 60.317 4.208 10.6 11.238 21.007 12.6 32.516-.749.673-1.293 1.47-.974 2.809.213.898.398 1.881 1.219 1.962-.116 12.837-6.284 25.79-12.088 36.795-12.019 22.786-31.446 43.981-59.081 43.746-1.816-.015-3.408.303-4.799.859l.008.002c10.11 2.507 19.826-1.181 30.264-4.26.193-.057.386-.115.58-.17.858-.252 1.722-.499 2.591-.736 8.691-2.355 11.706 8.082 14.654 15.282.115.283.233.558.35.839 8.227-5.239 15.663-11.848 22.123-19.31 1.307 2.552 4.528 4.095 5.148 7.008 1.472-1.4 2.907-3.028 4.973-.732.451-.49.707-.998.83-1.52.764.66 2.111.839 3.563.932l3.557-2.521c.934-1.833-.611-2.811-1.397-4.05-1.601.416-1.015 1.793-1.235 2.815h-.002c-1.709.757-2.9-1.683-4.636-.753-.109.26-.153.468-.226.697-.013-.036-.023-.07-.039-.105-.811-1.566-2.564-2.321-3.344-3.907-.972-1.964-2.212-2.411-3.547-2.311.513-.66 1.04-1.308 1.538-1.977 17.017-22.841 33.257-54.854 25.168-83.928-3.444-12.377-11.522-23.188-14.304-35.73-2.348-10.586 4.682-16.586 14.274-19.37 9.268-2.689 19.134-2.724 28.902-3.241a52.4 52.4 0 0 1-.376-3.68c-.07-.99-.121-1.979-.134-2.973l-.002-.055c-.015-1.06.007-2.124.056-3.189l.022-.418a54.14 54.14 0 0 1 .254-3.144 54.468 54.468 0 0 1 3.227-13.311c-.906.073-1.817.136-2.736.182-13.432.681-27.233-.02-40.09 4.63zm263.807 88.286c2.271-14.993-9.558-25.711-18.231-36.304-.712-.868-1.688-1.916-2.74-3.058.088.01.156.03.248.037.5-2.312-1.112-3.467-2.579-4.698-.24.54-.39 1.028-.484 1.487-1.48-1.762-2.858-3.622-3.685-5.436a42.387 42.387 0 0 0-2.402 1.294c-.759.439-1.506.903-2.24 1.389l-.103.07c-.718.48-1.424.98-2.115 1.501-.046.035-.09.071-.136.105-.68.52-1.35 1.057-2.002 1.619-.04.033-.078.07-.117.105a42.053 42.053 0 0 0-7.208 8.056l-.007.01c3.532 5.202 8 9.98 11.643 14.479 3.215 3.97 10.503 10.19 10.759 15.618.23 4.912-3.86 10.5-6.992 13.933-2.297 2.52-4.86 4.655-7.61 6.481l.003.002a27.643 27.643 0 0 0 3.396 2.022l.148.07a28.548 28.548 0 0 0 1.87.839c.555.224 1.12.432 1.694.619.039.01.076.027.117.04.621.2 1.255.376 1.897.53.093.022.19.039.283.061a26.286 26.286 0 0 0 3.576.561c.193.017.383.037.576.051a27.37 27.37 0 0 0 1.995.071c.902-.003 1.8-.063 2.696-.154.16-.017.323-.027.484-.046.766-.091 1.526-.22 2.282-.374.329-.066.659-.132.986-.21.61-.144 1.216-.307 1.818-.49.493-.15.984-.312 1.47-.484.071-.026.14-.055.213-.08a32.606 32.606 0 0 0 2.912-1.223c3.84-5.447 6.545-11.626 7.585-18.493zm-144.594-134.04c-4.541.424-9.781.729-14.59-.215l.015.015c.283.26.562.529.84.8.019.017.036.036.054.054.271.268.539.537.803.812l.017.017c.883.911 1.725 1.834 2.521 2.678l.29.303c.13.137.262.276.391.407.14.144.278.278.413.414.088.088.178.18.266.263.222.213.441.416.652.6.651.572 1.31 1.122 1.977 1.656.376.3.761.583 1.142.871.291.22.579.45.874.664.515.374 1.039.728 1.562 1.082.164.11.325.23.49.337.608.4 1.223.783 1.841 1.157.081.049.163.103.246.152a56.758 56.758 0 0 0 2.117 1.2 54.44 54.44 0 0 0 6.6 2.998c4.081-6.386.193-17.076-8.521-16.265zm-8.297-92.18c3.161-1.027 11.145-5.819 14.296-4.879 2.714.81 4.416 8.876 5.195 11.479 3.214 10.748 4.737 21.941 8.298 32.59 2.493 7.462 6.578 15.477 11.958 22.142-.458.19-.978.603-1.596 1.391-1.464 1.863-4.389 1.186-4.04 3.752.447 3.288.123 6.787 1.958 9.812.513.007 1.069-.117 1.535.038 4.733 1.568 9.056-.06 11.475-4.31.271-.476.447-.905.576-1.31 7.774 5.354 17.081 7.504 27.49 3.46.819-.319 3.697-1.332 4.65-1.952.348.242.748.542 1.009.878 2.502 3.222 5.222 6.42 7.85 9.55.16.188.327.37.49.556a74.18 74.18 0 0 0 2.095-3.001l.005-.008c2-3.02 3.77-6.171 5.32-9.428.028-.062.057-.122.086-.182a82.108 82.108 0 0 0 3.918-9.939l.11-.344a85.79 85.79 0 0 0 .99-3.339c-.317-.35-.64-.703-.953-1.05-7.242-8.05-17.538-12.84-28.325-9.092-5.504 1.911-7.214 4.856-12.238.778-4.684-3.803-7.376-10.04-9.26-15.604-4.153-12.262-5.602-25.274-10.004-37.463-4.878-13.502-13.089-25.557-29.075-25.138-12.504.327-22.896 8.565-35.539 8.577-1.758.002-3.505-.134-5.243-.327h-.002c-10.885 3.702-23.215 4.36-35.356 4.813l-.22.008-2.683.1-2.201.08c-.212.008-.427.015-.638.024-.839.032-1.677.066-2.511.1-.054.001-.107.005-.161.006 18.565 17.28 46.001 25.26 70.741 17.232zm19.578-47.593c.115.15.227.302.379.448.72.692 1.389.437 1.894-.178 1.455.059 2.902-.088 4.276-.493l5.394-1.589c.625.479 1.131.004 1.624-.477 4.638-1.36 9.277-2.724 13.913-4.093.078.44.124.906.095 1.435-.815.75-2.773 1.177-.215 2.483 3.335 1.704 6.783 1.809 10.344 1.587 1.357-1.409 1.27-2.334.691-3.094a46.25 46.25 0 0 0 2.312 1.592c1.486.972 2.98 3.177 4.908 1.58 1.902-1.575.627-3.692-.236-5.52-2.336-.968-3.108-4.968-6.72-3.469.071-.1.131-.207.18-.315 2.983-1.074 6.201-2.124 9.139-2.482 1.206 1.438 2.963 2.78 4.115 1.086.283-.417.361-.713.308-.937.119.029.244.044.359.076 4.1 1.178 4.35 6.994 3.607 12.989-.17.022-.329.039-.505.064-.303-.208-.608-.21-.913-.003-1.198-2.496-4.042-.974-5.702-2.341-1.362.267-1.943 1.143-1.931 2.48.581.97.159 2.466 1.57 3.003 3.669 3.435-1.83 6.196-.693 9.446-.525 2.528-1.118 5.063.805 7.32.396.604 1.323.908 1.067 1.88-1.076 1.282-1.652 2.635-.339 4.08.288.317 1.047.674 1.235.536 1.298-.96.952-2.456 1.015-3.798.015-.315-.214-.638-.331-.959.697-.498.592-1.43 1.944-1.782l.072-.018c.014 13.06 4.488 25.89 16.627 32.845 4.894 2.804 10.019 4.3 15.241 4.912a153.96 153.96 0 0 0-1.68-8.328 158.98 158.98 0 0 0-3.236-12.004 179.952 179.952 0 0 0 3.864-3.451 160.63 160.63 0 0 0 3.792-3.606l.001-.002c-.335-.11-.67-.223-1-.36-5.122-2.142-5.188-6.684-4.765-11.71 1.13-13.402 5.679-26.004.764-39.335-10.225-27.733-38.391-22.934-62.724-15.43.459-2.392.916-4.79 1.338-7.208.517-2.961.661-6.167.234-9.16-.422.198-.85.377-1.269.586a49 49 0 0 0-3.713 2.077c-.341.206-.671.421-1.003.635a50.23 50.23 0 0 0-2.666 1.839c-.265.195-.537.383-.797.583a53.463 53.463 0 0 0-3.096 2.566c-.214.191-.415.393-.627.588a56.77 56.77 0 0 0-2.314 2.262 64.576 64.576 0 0 0-3.132 3.48c-.112.134-.231.262-.341.396a74.169 74.169 0 0 0-2.439 3.149c-.234.317-.461.64-.691.96a94.526 94.526 0 0 0-1.718 2.485c-.215.324-.434.642-.646.97a120.585 120.585 0 0 0-2.092 3.334c-.159.265-.311.532-.469.796a152.386 152.386 0 0 0-2.307 4.028c-.464.839-.924 1.68-1.378 2.526-.198.369-.398.735-.594 1.104-.573 1.08-1.14 2.164-1.703 3.252-.465.9-.93 1.799-1.392 2.701.678 6.184 6.266 10.828 12.27 11.983zm-150.779 365.236c.029-.02.056-.044.085-.065l-.005-.039-.08.104zm5.904-1.962c.015.018.037.032.053.05.025.014.047.018.072.031h.002c-.01-.06-.032-.112-.044-.17-.029.03-.059.057-.088.085l.005.004zm-5.819 1.897l.234 1.917c.967.91 2.377.908 3.42 1.657 1.891.311 3.835.366 4.65-1.742.82-2.12-1.413-2.572-2.431-3.68-2.575-1.359-4.125.564-5.873 1.848zm-.086.065l.081-.104c-.041-.001-.08-.005-.12-.008.013.037.023.076.039.112zm-2.355-2.648c-.293.017-.85.711-.778.894.551 1.401 1.815 1.564 3.094 1.644-.434-1.16-.539-2.643-2.316-2.538zm14.406-.141c.408.756.1 2.277 1.27 2.133 1.047-.129.993-1.467.958-2.448l-2.228.315zm-31.663-99.249c-2.873.401-3.529-1.406-4.394-3.278-1.063-1.315-2.37-2.087-3.944-1.042-1.284.854-.728 2.321-.217 3.23.974 1.738 1.423 4.604 4.645 3.235.19.979.378 1.957.566 2.936.664.696 1.364.601 2.082.09 2.37 1.113 3.651-.546 4.032-2.24.359-1.595-1.464-3.114-2.77-2.93zm69.406 125.597c.727-.33.806-.974.62-1.652-.247-.908-.779-1.427-1.933-1.06-.605.36-1.382.83-.723 1.793.447.653 1.038 1.373 2.036.919zm-27.343-32.544c.247 1.496 2.327-.195 3.588.032 1.651 3.087 2.635.563 3.818-.284.135-.072.273-.143.408-.219.745-.3 1.667-.35 1.925-1.347l1.792-1.39c2.258-1.399 1.187-3.996 2.024-5.956.691-1.62-.93-3.472-2.502-1.762-2.294 2.494-5.697 2.741-8.001 4.927-1.697 1.679-3.427 3.719-3.052 5.999zm-42.275-115.673c-.525 3.623 2.421 1.883 3.849 2.49l.051.027c.837-.117 1.701-.193 1.939-1.243-1.92-3.47-3.747-3.87-5.839-1.274zm-39.831 75.84c-2.826-.694-2.357.918-1.554 2.586 1.213.502 2.392 1.125 3.646 1.48 2.38.674 1.961-.778 1.521-2.172-1.199-.652-2.331-1.577-3.613-1.894zm-3.034 37.312c-1.821-.1-3.065 1.577-3.121 2.265-.137 1.708 1.906 1.805 3.085 1.93 1.581.168 2.345-1.743 2.505-2.704.244-1.438-1.509-1.349-2.469-1.491zm12.247-106.082c-.267 2.036 1.947 2.285 3.749 2.06.461-.793.436-1.543-.198-2.24-1.325-1.81-3.337-1.436-3.551.18zm-10.286 83.854c-.701-2.204-.501-5.954-4.443-2.583-1.296.584-2.592 1.17-3.888 1.753-.412.251-.447.486-.1.705a2.215 2.215 0 0 0-1.057.262c-.62-.648-1.455-.999-2.189-1.489l-1.102-.908c-.954-1.048-2.291.192-3.295-.548l.027.015c-1.442-.844-2.065-.385-1.962 1.231 1.242 2.903 3.115 5.65 2.241 9.076-.584 1.899-1.026 3.855-1.783 5.682-1.449 3.485.713 5.686 3.254 6.287 3.217.76 6.539 2.249 10.044 1.242 3.357.248 5.512-.723 4.731-4.671 2.118-5.422.449-10.727-.478-16.054zm32.93-117.57c.105 1.23.873 1.795 2.028 1.724 1.482-.09 1.958-1.292 2.075-2.463.119-1.204-.611-1.854-1.805-1.61-1.205.455-2.433.773-2.298 2.349zm7.708 20.057c.942-.27 2.167-1.037 1.42-2.174-.664-1.012-1.252-2.699-2.912-2.413-1.098.19-1.645 1.135-.913 2.644-.017 1.285.566 2.469 2.405 1.943zm-6.695-36.917c1.173-.89.148-2.015-.994-3.233-.23.946-.412 1.411-.447 1.888-.08 1.048.078 2.378 1.441 1.345zm-47.947 130.095l3.064-.301.01-.017c.47-1.405.27-2.339-1.517-2.159-1.081.472-1.84 1.147-1.557 2.477zm41.705-104.703c-.747 1.24-.302 2.178 1.491 3.096.508-1.428.477-2.535-.364-3.487-.109-.122-.961.115-1.127.391zm6.175-3.552c-.093-.987-.652-1.504-3.078-1.367.413-.017-.21.408-.055 1.504.126.88.434 1.682 1.484 1.765 1.367.108 1.759-.723 1.649-1.902zm-48.805 102.134c2.387.584 2.831-.317 1.797-2.348-.987-.87-2.222-1.389-3.029-.131-.63.983.571 1.754 1.232 2.479zm248.774-318.53c1.435.173 1.225-1.271 1.36-2.251-.535-.99-.581-2.719-2.193-2.236-.637.19-1.332 1.748-1.191 2.539.139.777 1.242 1.853 2.024 1.948zm8.67 6.174c1.608.44 3.054.446 3.759-1.44 1.137-3.038-2.588-.403-2.544-2.173-.583-.508-.934-1.728-2.028-.664-.374 1.55-2.38 3.406.813 4.277zm5.284 5.954c1.794.351 2.619-1.25 2.1-3.138.285-1.368.249-3.329-1.097-3.338-2.585-.015.049 2.504-1.14 3.445-1.083 1.096-1.911 2.63.137 3.031zm8.118 35.83c.682-.217.75-.98.537-1.675-.28-.805-.678-1.68-1.655-1.498-1.095.205-.858 1.235-.697 1.984.197.911.91 1.477 1.815 1.19zm17.848 90.658c.4-.278 1.04-.92.965-1.05-.465-.812-1.346-1.061-2.195-.846-.591.149-1.177.598-1.02 1.423.657.632 1.38 1.076 2.25.473zm-101.891 290.49l2.319 2.025.517-.23c.212-.093.424-.186.634-.281l-.263-1.878-3.207.365zm56.074-415.84c1.137-.05 2.302-.937 3.334.36 4.869 6.112 4.877 6.106 11.467 2.64l-4.039-4.626c-1.258-1.015-3.234-1.51-2.761-3.787-3.124-4.1-6.258-1.667-9.259.112-1.244.737-3.092 1.576-2.594 3.409.461 1.697 2.234 1.963 3.852 1.892zm-62.728 331.862c-1.06.1-.774.895-.762 1.501.032 1.547 1.01 1.427 2.111 1.215.767-.147 1.338-.46 1.109-1.28-.333-1.2-1.523-1.134-2.458-1.436zm51.305-333.857c1.615-.995 1.046-3.284.451-3.396-1.841-.347-3.415 1.025-4.918 2.108.393 4.232 2.619 2.106 4.467 1.288zm-20.243-10.36c2.265-.032 2.902-1.834 3.139-3.408.122-.808-1.384-1.36-2.993-1.162-.868.657-2.525 1.159-2.411 3.097.078 1.338 1.13 1.49 2.265 1.473zm-57.572 44.692c1.23-.194 1.435-1.096 1.269-2.165l-2.846.402c-.03 1.087.227 1.977 1.577 1.763zm17.591 25.039c-.018 2 2.192 4.245 2.477 4.026 3.1-2.38 6.549 1.917 9.422-.682.224-.202.285-.583.422-.88.764.89 1.402 1.947 2.322 2.627 1.271.939 1.51 4.14 4.151 2.277 2.275-1.606.711-3.875.357-5.703-.296-1.533-1.907-2.744-3.596-1.864-2.352 1.227-1.73-1.544-2.865-1.822a17.424 17.424 0 0 0-.212-.979c4.991-5.925 4.966-5.932-.067-11.862-.62-.73-.788-1.844-1.166-2.78.149-1.838-1.172-2.593-2.512-3.245-.254-.124-1.047.223-1.132.496-.606 1.955.578 3.075 2.058 4.006.715 1.59 1.642 3.208-.574 4.418-3.827-.034-7.345-.778-9.788-4.128-.162-.222-.633-.268-.971-.305-1.026-.117-1.946-2.06-3.035-.354-.58.906-.351 2.278.444 2.878 4.8 3.628 4.313 8.815 4.265 13.876zm59.044 67.266c-1.659-1.428-2.416-4.377-5.562-3.296.361 3.618 1.693 5.598 5.562 3.296zm59.372-73.613c1.082-.153 1.93-.664 1.596-1.983-.681-1.25-1.457-2.622-2.955-2.404-1.016.147-1.326 1.484-1.142 2.53.233 1.32 1.132 2.05 2.5 1.857zm-238.192 209.785c-.96-.002-1.064.778-1.042 1.398.029.775.019 1.879 1.147 1.822.427-.022 1.061-.858 1.154-1.4.14-.826-.137-1.695-1.259-1.82z" clip-path="url(#d)" fill="rgba(120, 122, 195, 1)" stroke="none"/>
  </g>
</svg>
</g></svg></g></g>
<!-- /image 02826 -->
</defs><rect x="0" y="0" width="800" height="800" fill="rgba(77, 68, 139, 1)"></rect><use xlink:href="#transformed-02826" transform="translate(-800, -800)"></use><use xlink:href="#transformed-02826" transform="translate(0, -800)"></use><use xlink:href="#transformed-02826" transform="translate(800, -800)"></use><use xlink:href="#transformed-02826" transform="translate(-800, 0)"></use><use xlink:href="#transformed-02826" transform="translate(0, 0)"></use><use xlink:href="#transformed-02826" transform="translate(800, 0)"></use><use xlink:href="#transformed-02826" transform="translate(-800, 800)"></use><use xlink:href="#transformed-02826" transform="translate(0, 800)"></use><use xlink:href="#transformed-02826" transform="translate(800, 800)"></use></svg>